<?xml version='1.0' encoding='UTF-8' standalone='no'?>
<!-- Created with Fritzing (https://fritzing.org/) -->
<svg xmlns:svg='http://www.w3.org/2000/svg' xmlns='http://www.w3.org/2000/svg' version='1.2' baseProfile='tiny' x='0in' y='0in' width='4.52105in' height='2.66993in' viewBox='0 0 325.515 192.235' >
<g partID='103120'><g transform='translate(77.9742,192.235)' ><g transform='matrix(-1,0,0,-1,0,0)'  ><g xmlns="http://www.w3.org/2000/svg" id="breadboard">
 <path xmlns="http://www.w3.org/2000/svg" stroke-width="0.8826" stroke="#000000" d="M31.203,33.371c0,1.563,-1.271,2.835,-2.834,2.835L5.453,36.206c-1.565,0,-2.834,-1.271,-2.834,-2.835L2.619,5.875c0,-1.564,1.269,-2.835,2.834,-2.835l22.916,0c1.564,0,2.834,1.271,2.834,2.835L31.203,33.371L31.203,33.371z"/>
 <rect xmlns="http://www.w3.org/2000/svg" y="17.415" x="1.452" height="4.416" fill="#CCCCCC" width="30.833"/>
 <rect xmlns="http://www.w3.org/2000/svg" y="36.197" x="23.187" height="2.666" fill="#CCCCCC" width="1.734"/>
 <rect xmlns="http://www.w3.org/2000/svg" y="36.197" x="15.986" height="2.666" fill="#CCCCCC" width="1.735"/>
 <rect xmlns="http://www.w3.org/2000/svg" y="36.197" x="8.786" height="2.666" fill="#CCCCCC" width="1.735"/>
 <g xmlns="http://www.w3.org/2000/svg">
  <path xmlns="http://www.w3.org/2000/svg" d="M27.648,35.209L4.733,35.209c-1.806,0,-3.275,-1.471,-3.275,-3.277L1.458,4.435c0,-1.806,1.469,-3.275,3.275,-3.275l22.915,0c1.806,0,3.275,1.469,3.275,3.275l0,27.497C30.923,33.739,29.454,35.209,27.648,35.209zM4.733,2.042c-1.319,0,-2.393,1.073,-2.393,2.393l0,27.497c0,1.32,1.073,2.395,2.393,2.395l22.915,0c1.319,0,2.393,-1.074,2.393,-2.395L30.041,4.435c0,-1.319,-1.073,-2.393,-2.393,-2.393L4.733,2.042z"/>
 </g>
 <polygon xmlns="http://www.w3.org/2000/svg" points="31.703,6.956,31.703,32.29,30.982,30.852,1.399,30.852,1.399,5.517,30.982,5.517" fill="#CCCCCC"/>
 <polygon xmlns="http://www.w3.org/2000/svg" points="32.287,17.415,32.287,21.831,31.566,20.392,1.399,20.31,1.385,21.811,0.732,20.392,0.732,15.976,31.566,15.976" fill="#ABABAB"/>
 <path xmlns="http://www.w3.org/2000/svg" d="M30.267,31.689c0,1.539,-1.246,2.785,-2.785,2.785L4.971,34.474c-1.538,0,-2.785,-1.246,-2.785,-2.785L2.186,4.678c0,-1.537,1.247,-2.785,2.785,-2.785l22.511,0c1.537,0,2.784,1.248,2.784,2.785L30.267,31.689L30.267,31.689z" fill="#ABABAB"/>
 <circle xmlns="http://www.w3.org/2000/svg" r="1.917" cx="27.386" cy="31.429"/>
 <circle xmlns="http://www.w3.org/2000/svg" r="1.917" cx="5.065" cy="31.429"/>
 <circle xmlns="http://www.w3.org/2000/svg" r="1.917" cx="27.386" cy="4.787"/>
 <circle xmlns="http://www.w3.org/2000/svg" r="1.917" cx="5.065" cy="4.787"/>
 <circle xmlns="http://www.w3.org/2000/svg" r="8.125" stroke="#777777" cx="16.194" cy="18.162" fill="#878787"/>
 <circle xmlns="http://www.w3.org/2000/svg" r="6.5" cx="16.194" cy="18.162" fill="#878787"/>
 <circle xmlns="http://www.w3.org/2000/svg" r="6.5" cx="15.476" cy="16.722" fill="#3A3A3A"/>
 <polygon xmlns="http://www.w3.org/2000/svg" points="6.731,13.768,9.862,19.923,21.428,14.111,18.394,8.098" fill="#3A3A3A"/>
 <path xmlns="http://www.w3.org/2000/svg" d="M13.37,20.268l7.149,-7.957c0.122,0.496,0.109,0.963,0.109,1.498c0,3.59,-2.91,6.502,-6.501,6.502C13.871,20.312,13.619,20.297,13.37,20.268z" fill="#595959"/>
 <path xmlns="http://www.w3.org/2000/svg" d="M13.364,20.309c-3.275,-0.335,-5.831,-3.104,-5.831,-6.469c0,-3.59,2.91,-6.5,6.5,-6.5c3.122,0,5.728,2.198,6.357,5.13L13.364,20.309z" fill="#3A3A3A"/>
 <path xmlns="http://www.w3.org/2000/svg" d="M11.924,17.429c-3.275,-0.335,-5.831,-3.105,-5.831,-6.469c0,-3.59,2.91,-6.5,6.5,-6.5c3.122,0,5.729,2.198,6.358,5.13L11.924,17.429z" fill="#3A3A3A"/>
 <path xmlns="http://www.w3.org/2000/svg" d="M30.923,4.701c0,-1.806,-1.47,-3.275,-3.275,-3.275L4.733,1.426c-1.806,0,-3.275,1.469,-3.275,3.275L1.458,4.435c0,-1.806,1.469,-3.275,3.275,-3.275l22.915,0c1.806,0,3.275,1.469,3.275,3.275" opacity="0.2" fill="#FFFFFF"/>
 <polygon xmlns="http://www.w3.org/2000/svg" points="11.924,17.429,13.37,20.268,20.521,12.312,19.066,9.493" fill="#828282"/>
</g>
</g></g></g><g partID='104010'><g transform='translate(38.0259,88.2313)' ><g xmlns="http://www.w3.org/2000/svg" id="breadboard">
 <g xmlns="http://www.w3.org/2000/svg">
  <polygon xmlns="http://www.w3.org/2000/svg" points="14.8219,23.7449,14.8219,15.4706,16.9819,15.4706,16.9819,23.7449" fill="#8C8C8C"/>
  <polygon xmlns="http://www.w3.org/2000/svg" points="0.42192,8.27496,0.42192,0.00072,2.58048,0.00072,2.58048,8.27496" fill="#8C8C8C"/>
  <polygon xmlns="http://www.w3.org/2000/svg" points="14.8219,8.27568,14.8219,0,16.9819,0,16.9819,8.27568" fill="#8C8C8C"/>
  <polygon xmlns="http://www.w3.org/2000/svg" points="0.42264,23.7463,0.42264,15.4706,2.58192,15.4706,2.58192,23.7463" fill="#8C8C8C"/>
  <rect xmlns="http://www.w3.org/2000/svg" y="3.04704" x="0.00864" height="17.6544" width="17.653"/>
  <path xmlns="http://www.w3.org/2000/svg" d="M17.6609,19.2614c0,0.79272,-0.64512,1.43928,-1.44,1.43928L1.44792,20.7007c-0.79272,0,-1.43928,-0.64656,-1.43928,-1.43928L0.00864,4.4856c0,-0.792,0.64656,-1.43856,1.43928,-1.43856l14.7751,0c0.79416,0,1.43784,0.64656,1.43784,1.43856L17.6609,19.2614L17.6609,19.2614z" fill="#999999"/>
  <circle xmlns="http://www.w3.org/2000/svg" r="1.52928" cx="2.57976" cy="5.61816"/>
  <circle xmlns="http://www.w3.org/2000/svg" r="1.52928" cx="15.133" cy="5.6448"/>
  <circle xmlns="http://www.w3.org/2000/svg" r="1.52928" cx="15.1063" cy="18.198"/>
  <circle xmlns="http://www.w3.org/2000/svg" r="1.52928" cx="2.55312" cy="18.1699"/>
  <circle xmlns="http://www.w3.org/2000/svg" r="5.148" cx="8.8344" cy="11.8735" fill="#3F3F3F"/>
  <linearGradient xmlns="http://www.w3.org/2000/svg" x2="-182.577" y1="-335.051" x1="-192.873" gradientTransform="matrix(1 0 0 -1 273 -448.8574)" id="SVGID_1_" gradientUnits="userSpaceOnUse" y2="-335.051">
   <stop xmlns="http://www.w3.org/2000/svg" offset="0" style="stop-color:#333333"/>
   <stop xmlns="http://www.w3.org/2000/svg" offset="1" style="stop-color:#3C3C3C"/>
  </linearGradient>
  <circle xmlns="http://www.w3.org/2000/svg" r="5.148" cx="8.8344" cy="11.8735" fill="url(#SVGID_1_)"/>
  <circle xmlns="http://www.w3.org/2000/svg" r="4.53024" enable-background="new    " cx="8.9244" cy="12.4855" opacity="0.6"/>
  <circle xmlns="http://www.w3.org/2000/svg" r="4.41504" cx="8.84088" cy="11.9038" fill="#735348"/>
  <path xmlns="http://www.w3.org/2000/svg" enable-background="new    " d="M2.38176,5.53824c0.03024,-0.072,0.08568,-0.12744,0.16416,-0.14112L2.39472,4.43376C2.33712,4.44312,2.27592,4.4352,2.21904,4.45248L2.2176,4.44816C1.8612,4.55832,1.5948,4.824,1.45872,5.16312L2.38176,5.53824z" opacity="0.5" fill="#FFFFFF"/>
  <path xmlns="http://www.w3.org/2000/svg" enable-background="new    " d="M14.9335,5.56416c0.02952,-0.07344,0.08496,-0.12888,0.16488,-0.14184l-0.14904,-0.96336c-0.05904,0.0108,-0.11952,0.00144,-0.1764,0.01872l-0.00216,-0.00504c-0.35496,0.10944,-0.62208,0.37512,-0.75816,0.71496L14.9335,5.56416z" opacity="0.5" fill="#FFFFFF"/>
  <path xmlns="http://www.w3.org/2000/svg" enable-background="new    " d="M14.909,18.1174c0.02952,-0.07344,0.08352,-0.1296,0.16344,-0.14184l-0.14904,-0.96264c-0.05904,0.0108,-0.11952,0.00144,-0.17712,0.01872l-0.00144,-0.0072c-0.35568,0.10944,-0.6228,0.37512,-0.75816,0.71568L14.909,18.1174z" opacity="0.5" fill="#FFFFFF"/>
  <path xmlns="http://www.w3.org/2000/svg" enable-background="new    " d="M2.35512,18.0907c0.02952,-0.07344,0.08496,-0.12672,0.16488,-0.1404l-0.1512,-0.96408c-0.05904,0.01224,-0.11952,0.00144,-0.1764,0.01944l-0.00144,-0.00504c-0.3564,0.108,-0.6228,0.37512,-0.76032,0.71424L2.35512,18.0907z" opacity="0.5" fill="#FFFFFF"/>
  <path xmlns="http://www.w3.org/2000/svg" enable-background="new    " d="M10.4206,7.78896c-0.342,-0.1332,-0.702,-0.22896,-1.08288,-0.27216c-0.94752,-0.10584,-1.85472,0.1044,-2.63016,0.53424L6.61104,8.3016c0.86616,-0.46296,1.87488,-0.67752,2.92464,-0.56016c0.32256,0.03744,0.63648,0.10944,0.93672,0.20448L10.4206,7.78896z" opacity="0.6" fill="#FFFFFF"/>
 </g>
</g>
</g></g><g partID='107440'><g transform='translate(102.393,151.631)' ><g transform='matrix(-1,0,0,-1,0,0)'  ><g xmlns="http://www.w3.org/2000/svg" id="breadboard">
<g xmlns="http://www.w3.org/2000/svg" y="25.2756" id="connector0terminal" x="4.34376" height="1.18584" fill="#8C8C8C" width="1.8144"/>
<g xmlns="http://www.w3.org/2000/svg" y="25.2756" id="connector1terminal" x="11.543" height="1.18584" fill="#8C8C8C" width="1.81512"/>
<g xmlns="http://www.w3.org/2000/svg" y="25.2756" id="connector2terminal" x="18.7416" height="1.18584" fill="#8C8C8C" width="1.81512"/>
<rect xmlns="http://www.w3.org/2000/svg" y="21.1104" id="connector0pin" x="4.34376" height="5.35536" fill="#8C8C8C" width="1.8144"/>
<rect xmlns="http://www.w3.org/2000/svg" y="21.1104" id="connector1pin" x="11.543" height="5.35536" fill="#8C8C8C" width="1.81512"/>
<rect xmlns="http://www.w3.org/2000/svg" y="21.1104" id="connector2pin" x="18.7416" height="5.35536" fill="#8C8C8C" width="1.81512"/>
<rect xmlns="http://www.w3.org/2000/svg" y="11.4516" id="rect4" x="4.33512" height="14.9652" fill="#8C8C8C" width="1.8144"/>
<rect xmlns="http://www.w3.org/2000/svg" y="11.4516" id="rect6" x="11.5344" height="14.9652" fill="#8C8C8C" width="1.81512"/>
<rect xmlns="http://www.w3.org/2000/svg" y="11.4516" id="rect8" x="18.733" height="14.9652" fill="#8C8C8C" width="1.81512"/>
<polygon xmlns="http://www.w3.org/2000/svg" id="polygon21" points="7.76232,18.7553,6.14952,19.4753,4.33584,19.4753,2.72232,18.7553,2.72232,9.9864,7.76232,9.9864" fill="#8C8C8C"/>
<polygon xmlns="http://www.w3.org/2000/svg" id="polygon23" points="14.963,18.7553,13.3481,19.4753,11.5351,19.4753,9.92232,18.7553,9.92232,9.9864,14.963,9.9864" fill="#8C8C8C"/>
<polygon xmlns="http://www.w3.org/2000/svg" id="polygon25" points="22.1616,18.7553,20.5466,19.4753,18.7344,19.4753,17.1216,18.7553,17.1216,9.9864,22.1616,9.9864" fill="#8C8C8C"/>
<rect xmlns="http://www.w3.org/2000/svg" y="3.34512" id="rect27" x="-0.87696" height="13.2998" fill="#1A1A1A" width="26.6386"/>
<rect xmlns="http://www.w3.org/2000/svg" y="5.94" id="rect49" x="-0.87696" height="3.34728" width="26.6386"/>
<rect xmlns="http://www.w3.org/2000/svg" y="3.24072" id="rect51" x="-0.87696" height="4.13856" fill="#333333" width="26.6386"/>
<rect xmlns="http://www.w3.org/2000/svg" y="3.64464" id="rect49_1_" x="7.29792" height="3.34728" width="11.2046"/>
<rect xmlns="http://www.w3.org/2000/svg" y="1.59408" id="rect27_1_" x="13.5547" height="5.27904" fill="#1A1A1A" width="4.79808"/>
<rect xmlns="http://www.w3.org/2000/svg" y="-0.59976" id="rect51_1_" x="13.5547" height="2.19312" fill="#333333" width="4.79808"/>
</g>
</g></g></g><g partID='101910'><line stroke-linecap='round' stroke='#d6d63a' x1='222.676' y1='64.4547' x2='113.382' y2='52.1224' stroke-width='3.2' /><line stroke-linecap='round' stroke='#fff800' x1='222.676' y1='64.4547' x2='113.382' y2='52.1224' stroke-width='1.6' /></g><g partID='101980'><line stroke-linecap='round' stroke='#1b5bb3' x1='222.676' y1='59.9194' x2='113.382' y2='56.6578' stroke-width='3.2' /><line stroke-linecap='round' stroke='#418dd9' x1='222.676' y1='59.9194' x2='113.382' y2='56.6578' stroke-width='1.6' /></g><g partID='102200'><line stroke-linecap='round' stroke='#8c0000' x1='222.676' y1='55.3839' x2='113.382' y2='61.1933' stroke-width='3.2' /><line stroke-linecap='round' stroke='#cc1414' x1='222.676' y1='55.3839' x2='113.382' y2='61.1933' stroke-width='1.6' /></g><g partID='102270'><line stroke-linecap='round' stroke='#000000' x1='222.676' y1='50.8485' x2='113.382' y2='65.7287' stroke-width='3.2' /><line stroke-linecap='round' stroke='#404040' x1='222.676' y1='50.8485' x2='113.382' y2='65.7287' stroke-width='1.6' /></g><g partID='103190'><line stroke-linecap='round' stroke='#666666' x1='68.3422' y1='154.563' x2='68.3422' y2='75.3627' stroke-width='3.2' /><line stroke-linecap='round' stroke='#999999' x1='68.3422' y1='154.563' x2='68.3422' y2='75.3627' stroke-width='1.6' /></g><g partID='103260'><line stroke-linecap='round' stroke='#ad6a38' x1='75.5422' y1='32.1627' x2='75.4137' y2='3.20855' stroke-width='3.2' /><line stroke-linecap='round' stroke='#ef6100' x1='75.5422' y1='32.1627' x2='75.4137' y2='3.20855' stroke-width='1.6' /></g><g partID='103370'><line stroke-linecap='round' stroke='#ad6a38' x1='75.4137' y1='3.20855' x2='3.61903' y2='3.5573' stroke-width='3.2' /><line stroke-linecap='round' stroke='#ef6100' x1='75.4137' y1='3.20855' x2='3.61903' y2='3.5573' stroke-width='1.6' /></g><g partID='104080'><line stroke-linecap='round' stroke='#ad6a38' x1='3.61903' y1='111.235' x2='61.1327' y2='154.609' stroke-width='3.2' /><line stroke-linecap='round' stroke='#ef6100' x1='3.61903' y1='111.235' x2='61.1327' y2='154.609' stroke-width='1.6' /></g><g partID='103480'><line stroke-linecap='round' stroke='#ad6a38' x1='3.61903' y1='3.5573' x2='3.61903' y2='111.235' stroke-width='3.2' /><line stroke-linecap='round' stroke='#ef6100' x1='3.61903' y1='3.5573' x2='3.61903' y2='111.235' stroke-width='1.6' /></g><g partID='104190'><line stroke-linecap='round' stroke='#00a527' x1='53.9422' y1='89.7627' x2='61.1422' y2='75.3627' stroke-width='3.2' /><line stroke-linecap='round' stroke='#25cc35' x1='53.9422' y1='89.7627' x2='61.1422' y2='75.3627' stroke-width='1.6' /></g><g partID='104590'><line stroke-linecap='round' stroke='#000000' x1='39.5496' y1='68.1517' x2='39.5422' y2='89.7627' stroke-width='3.2' /><line stroke-linecap='round' stroke='#404040' x1='39.5496' y1='68.1517' x2='39.5422' y2='89.7627' stroke-width='1.6' /></g><g partID='104480'><line stroke-linecap='round' stroke='#000000' x1='39.5496' y1='10.4783' x2='39.5496' y2='68.1517' stroke-width='3.2' /><line stroke-linecap='round' stroke='#404040' x1='39.5496' y1='10.4783' x2='39.5496' y2='68.1517' stroke-width='1.6' /></g><g partID='104370'><line stroke-linecap='round' stroke='#000000' x1='68.144' y1='10.4783' x2='39.5496' y2='10.4783' stroke-width='3.2' /><line stroke-linecap='round' stroke='#404040' x1='68.144' y1='10.4783' x2='39.5496' y2='10.4783' stroke-width='1.6' /></g><g partID='104260'><line stroke-linecap='round' stroke='#000000' x1='68.3422' y1='32.1627' x2='68.144' y2='10.4783' stroke-width='3.2' /><line stroke-linecap='round' stroke='#404040' x1='68.3422' y1='32.1627' x2='68.144' y2='10.4783' stroke-width='1.6' /></g><g partID='107610'><line stroke-linecap='round' stroke='#000000' x1='89.9532' y1='118.555' x2='39.5496' y2='118.555' stroke-width='3.2' /><line stroke-linecap='round' stroke='#404040' x1='89.9532' y1='118.555' x2='39.5496' y2='118.555' stroke-width='1.6' /></g><g partID='107540'><line stroke-linecap='round' stroke='#000000' x1='39.5496' y1='118.555' x2='39.5422' y2='110.463' stroke-width='3.2' /><line stroke-linecap='round' stroke='#404040' x1='39.5496' y1='118.555' x2='39.5422' y2='110.463' stroke-width='1.6' /></g><g partID='107470'><line stroke-linecap='round' stroke='#000000' x1='89.9426' y1='125.763' x2='89.9532' y2='118.555' stroke-width='3.2' /><line stroke-linecap='round' stroke='#404040' x1='89.9426' y1='125.763' x2='89.9532' y2='118.555' stroke-width='1.6' /></g><g partID='107680'><line stroke-linecap='round' stroke='#00a0c6' x1='75.5422' y1='75.3627' x2='82.744' y2='125.763' stroke-width='3.2' /><line stroke-linecap='round' stroke='#33ffc5' x1='75.5422' y1='75.3627' x2='82.744' y2='125.763' stroke-width='1.6' /></g><g partID='107750'><line stroke-linecap='round' stroke='#7a3a73' x1='82.7422' y1='75.3627' x2='97.1422' y2='125.763' stroke-width='3.2' /><line stroke-linecap='round' stroke='#ab58a2' x1='82.7422' y1='75.3627' x2='97.1422' y2='125.763' stroke-width='1.6' /></g><g partID='104010' id='partLabel'><g transform='translate(18.2846,95.9537)' ><g font-size='9' font-style='normal' font-weight='normal' fill='#000000' font-family="'DroidSans'" id='breadboardLabel' fill-opacity='1' stroke='none' ><text x='0' y='6.75'>Toot</text></g></g></g><g partID='103120' id='partLabel'><g transform='translate(18.9544,168.665)' ><g font-size='9' font-style='normal' font-weight='normal' fill='#000000' font-family="'DroidSans'" id='breadboardLabel' fill-opacity='1' stroke='none' ><text x='0' y='6.75'>Scale</text></g></g></g><g partID='107440' id='partLabel'><g transform='translate(104.646,137.243)' ><g font-size='9' font-style='normal' font-weight='normal' fill='#000000' font-family="'DroidSans'" id='breadboardLabel' fill-opacity='1' stroke='none' ><text x='0' y='6.75'>Invert_Disable</text></g></g></g><g partID='98280' id='partLabel'><g transform='translate(224.715,10.8111)' ><g font-size='9' font-style='normal' font-weight='normal' fill='#000000' font-family="'DroidSans'" id='breadboardLabel' fill-opacity='1' stroke='none' ><text x='0' y='6.75'>Distance_Sensor</text><text x='0' y='15.75'>Adafruit #3317</text></g></g></g><g partID='101880' id='partLabel'><g transform='translate(78.2591,7.70897)' ><g font-size='9' font-style='normal' font-weight='normal' fill='#000000' font-family="'DroidSans'" id='breadboardLabel' fill-opacity='1' stroke='none' ><text x='0' y='6.75'>Dev_Board</text><text x='0' y='15.75'>Adafruit #4900</text></g></g></g></svg>